PathFileType	4	(X/Y/Z)	/Users/itak/Documents/Research/Walk-IL/dataset/trc/00413_00012.trc
DataRate	CameraRate	NumFrames	NumMarkers	Units	OrigDataRate	OrigDataStartFrame	OrigNumFrames
100.000000	100.000000	4	53	mm	100.000000	288	576
Frame#	Time	RPSI			LPSI			L3			STRN			T10			C7			CLAV			RBAK			LBAK			LSHO			LUPA			LAEL			LAOL			LWTS			LWPS			LFRA			LIFD			LHPS			LHTS			RSHO			RUPA			RAEL			RAOL			RWTS			RWPS			RFRA			RIFD			RHTS			RHPS			RBHD			LFHD			RFHD			LBHD			LHIP			RHIP			RASI			LASI			LKNE			LTHI			LANK			LTIP			LTOE			LMT1			LMT5			LHEE			RKNE			RTHI			RANK			RTIP			RTOE			RMT1			RMT5			RHEE			
		X1	Y1	Z1	X2	Y2	Z2	X3	Y3	Z3	X4	Y4	Z4	X5	Y5	Z5	X6	Y6	Z6	X7	Y7	Z7	X8	Y8	Z8	X9	Y9	Z9	X10	Y10	Z10	X11	Y11	Z11	X12	Y12	Z12	X13	Y13	Z13	X14	Y14	Z14	X15	Y15	Z15	X16	Y16	Z16	X17	Y17	Z17	X18	Y18	Z18	X19	Y19	Z19	X20	Y20	Z20	X21	Y21	Z21	X22	Y22	Z22	X23	Y23	Z23	X24	Y24	Z24	X25	Y25	Z25	X26	Y26	Z26	X27	Y27	Z27	X28	Y28	Z28	X29	Y29	Z29	X30	Y30	Z30	X31	Y31	Z31	X32	Y32	Z32	X33	Y33	Z33	X34	Y34	Z34	X35	Y35	Z35	X36	Y36	Z36	X37	Y37	Z37	X38	Y38	Z38	X39	Y39	Z39	X40	Y40	Z40	X41	Y41	Z41	X42	Y42	Z42	X43	Y43	Z43	X44	Y44	Z44	X45	Y45	Z45	X46	Y46	Z46	X47	Y47	Z47	X48	Y48	Z48	X49	Y49	Z49	X50	Y50	Z50	X51	Y51	Z51	X52	Y52	Z52	X53	Y53	Z53	

289	2.88	203.9070129394531	948.4244384765625	575.1336669921875	138.689453125	929.2240600585938	460.9055480957031	166.4637298583984	1019.191040039062	512.978759765625	371.6285705566406	1180.09375	404.9293518066406	146.6795654296875	1122.290161132812	510.1130981445312	170.8294372558594	1371.351318359375	481.1615295410156	319.1264038085938	1297.770385742188	427.0682373046875	160.2185821533203	1223.962158203125	558.0608520507812	117.323844909668	1334.336303710938	392.9580688476562	177.6471710205078	1352.612915039062	312.8298645019531	123.7660675048828	1234.944458007812	263.8001098632812	124.3524932861328	1038.00341796875	242.4308471679688	96.58223724365234	1019.576599121094	321.7109069824219	261.1170349121094	855.5690307617188	237.4580993652344	195.9619750976562	830.8195190429688	194.3542633056641	148.0453948974609	942.2772827148438	223.1056518554688	303.81103515625	684.78466796875	214.6331939697266	232.8118591308594	752.5105590820312	188.0756988525391	293.6333312988281	769.198974609375	201.7521514892578	284.4046325683594	1352.28662109375	605.8533935546875	289.2453918457031	1292.291381835938	666.8453979492188	265.2190551757812	1035.733764648438	721.0181274414062	229.7876434326172	1024.80859375	634.1748046875	339.7406616210938	798.0134887695312	700.077880859375	307.748046875	804.0240478515625	766.658935546875	280.0248718261719	970.8331298828125	741.3706665039062	288.59912109375	633.1030883789062	722.6842041015625	332.5280151367188	692.6806030273438	729.8861083984375	289.1473999023438	717.1213989257812	777.8041381835938	216.4812774658203	1558.420532226562	546.3682861328125	310.0343322753906	1571.855590820312	369.9032287597656	336.7113647460938	1579.660034179688	488.8193359375	164.7398071289062	1546.129272460938	392.7639465332031	159.0506134033203	909.7538452148438	320.1029968261719	333.0006713867188	944.2734375	632.2003173828125	415.5366821289062	954.501953125	515.8419189453125	276.172119140625	912.8074951171875	295.7131652832031	212.9160766601562	424.4909057617188	362.3325500488281	207.6486663818359	560.6624145507812	343.1865844726562	-104.8596801757812	154.9173431396484	539.51708984375	45.23419952392578	276.7944641113281	443.2810363769531	39.81163787841797	30.88311195373535	606.6900024414062	0.5397228598594666	77.45640563964844	624.8978881835938	-35.5458984375	50.82109451293945	532.3729858398438	-108.489143371582	199.2457580566406	590.4808959960938	501.7906188964844	483.0438842773438	523.9872436523438	456.4280090332031	738.612060546875	568.787353515625	499.2378540039062	51.01936340332031	544.94287109375	521.82958984375	356.2781982421875	506.227783203125	604.2261962890625	34.57560729980469	385.7200622558594	525.1884765625	39.39272308349609	407.9031677246094	569.5010986328125	39.0352897644043	499.4511413574219	410.2483215332031	37.60002136230469	546.7605590820312	
290	2.89	214.780029296875	950.1613159179688	571.87158203125	148.2559509277344	929.8234252929688	458.3526611328125	176.9588317871094	1020.637084960938	510.0080871582031	381.1095581054688	1181.651000976562	399.6553649902344	157.8411712646484	1123.652099609375	507.0691223144531	181.3017425537109	1372.7607421875	478.4725646972656	328.9136047363281	1299.3740234375	422.3399658203125	171.8551177978516	1225.417724609375	555.5783081054688	126.7164993286133	1335.7607421875	390.8862609863281	185.928466796875	1353.975708007812	310.0162353515625	131.8755035400391	1236.141723632812	261.56689453125	132.6051025390625	1038.984130859375	240.5879211425781	105.9455413818359	1020.971984863281	320.3109436035156	263.4747619628906	850.8180541992188	236.1311187744141	196.4418792724609	827.7952880859375	194.9687042236328	153.6053009033203	941.60009765625	222.2045745849609	298.1509094238281	677.7278442382812	216.4589385986328	229.8167266845703	747.8869018554688	189.7541656494141	291.5418701171875	762.1795654296875	201.8210601806641	296.6405944824219	1354.0009765625	601.4976196289062	302.8041381835938	1293.885620117188	662.45458984375	282.5063781738281	1036.998779296875	716.9757690429688	244.7746276855469	1025.910034179688	631.1624755859375	359.5859375	800.3807373046875	692.927978515625	329.2980651855469	805.5271606445312	760.295166015625	298.5581665039062	972.021484375	736.6448974609375	312.12255859375	634.645751953125	715.673828125	354.9688415527344	694.830322265625	722.262939453125	312.3910217285156	718.2667846679688	771.3721923828125	228.0960540771484	1559.966674804688	543.3824462890625	318.4455261230469	1573.314819335938	365.1785278320312	347.3346252441406	1581.0927734375	483.5801391601562	173.5566558837891	1547.81298828125	390.719970703125	167.5015563964844	910.1542358398438	317.4574890136719	344.2030639648438	946.2742919921875	627.8665771484375	426.1575317382812	956.033935546875	510.8992919921875	284.5610656738281	913.9965209960938	292.4052734375	231.0008850097656	425.1372375488281	353.4945983886719	223.0346374511719	560.7139892578125	336.5033569335938	-90.63929748535156	164.5014801025391	534.2553100585938	61.59992599487305	280.9977722167969	436.3604431152344	46.35443878173828	30.21650314331055	602.2626953125	11.38361167907715	82.06464385986328	620.1939697265625	-27.92657279968262	54.83609390258789	528.5831298828125	-91.12495422363281	209.4179229736328	584.7514038085938	508.1976623535156	482.6295471191406	521.4769287109375	466.210693359375	739.3306274414062	565.0054931640625	499.2366333007812	51.03977966308594	544.9573974609375	526.4740600585938	355.3811340332031	504.3275146484375	604.359130859375	34.38259124755859	385.7486877441406	525.2888793945312	39.37743377685547	407.9544982910156	569.5615844726562	39.08759689331055	499.5869445800781	410.3125	37.70960998535156	546.7833251953125	
291	2.9	225.3760986328125	951.8592529296875	568.667724609375	157.4656066894531	930.4292602539062	455.9705505371094	187.2533416748047	1022.195739746094	507.1376342773438	390.2799377441406	1183.093627929688	394.2240905761719	168.9149169921875	1125.04541015625	504.0640563964844	191.7275543212891	1374.2080078125	475.7327880859375	338.4673461914062	1300.885131835938	417.452880859375	183.4347076416016	1226.942749023438	553.1019287109375	135.8985748291016	1337.196655273438	388.8207702636719	193.9567108154297	1355.266723632812	307.1499633789062	139.6175689697266	1237.252807617188	259.4122009277344	140.4002075195312	1039.948974609375	238.8747253417969	114.9220199584961	1022.274536132812	319.0374450683594	265.4242553710938	846.4903564453125	234.9800415039062	196.6417846679688	825.2505493164062	195.7220153808594	158.7659759521484	941.1041259765625	221.44384765625	292.1776733398438	671.4698486328125	218.4991455078125	226.5555419921875	743.9447021484375	191.5632171630859	289.0783386230469	755.8050537109375	202.1154174804688	308.8532104492188	1355.747802734375	596.9509887695312	316.3896484375	1295.51513671875	657.8768310546875	299.936279296875	1038.337524414062	712.7742309570312	259.8150329589844	1026.998291015625	628.1056518554688	379.5844116210938	802.9332275390625	685.4522094726562	351.1087646484375	807.2303466796875	753.6116943359375	317.2726745605469	973.3026733398438	731.7108154296875	336.1644592285156	636.4253540039062	708.4171142578125	377.766357421875	697.2426147460938	714.3103637695312	336.0867614746094	719.6525268554688	764.645263671875	239.6596832275391	1561.533935546875	540.2119140625	326.7638244628906	1574.774291992188	360.3406372070312	357.8401489257812	1582.512451171875	478.2088317871094	182.3211059570312	1549.503784179688	388.5430908203125	175.5209045410156	910.608642578125	315.0245666503906	355.2162780761719	948.0896606445312	623.5235595703125	436.5180053710938	957.3782348632812	505.9277648925781	292.5314025878906	915.2423095703125	289.1040344238281	249.3743591308594	426.0879516601562	344.4116821289062	238.4782867431641	561.017578125	329.6123352050781	-75.36190032958984	173.6828155517578	528.692626953125	78.74810791015625	285.0924072265625	429.1123046875	55.02728652954102	29.83752250671387	596.4526977539062	23.99556350708008	86.88336181640625	614.6626586914062	-18.557373046875	59.50236892700195	523.8366088867188	-72.99815368652344	218.8037719726562	578.9075317382812	514.02587890625	482.0845031738281	519.2490234375	475.4490356445312	739.7428588867188	561.5094604492188	499.1880493164062	51.08543014526367	544.9400634765625	530.6996459960938	354.4341735839844	502.6084289550781	604.4328002929688	34.35019302368164	385.7744445800781	525.3262939453125	39.37282180786133	407.9657897949219	569.5684814453125	39.19684982299805	499.6729736328125	410.3316040039062	37.79075622558594	546.7733764648438	
292	2.91	235.6912078857422	953.5186767578125	565.51708984375	166.3552703857422	931.0677490234375	453.7395324707031	197.351318359375	1023.864318847656	504.3514709472656	399.143798828125	1184.432373046875	388.6513671875	179.8908386230469	1126.4736328125	501.1153564453125	202.0978851318359	1375.701538085938	472.9375305175781	347.7801208496094	1302.308227539062	412.4228820800781	194.9580841064453	1228.546752929688	550.6338500976562	144.8642425537109	1338.645141601562	386.7640380859375	201.7332153320312	1356.486938476562	304.23583984375	146.9804382324219	1238.289916992188	257.3510131835938	147.6839447021484	1040.901123046875	237.3022766113281	123.456169128418	1023.507995605469	317.9046630859375	267.0078125	842.6287841796875	234.0205688476562	196.6278076171875	823.1954345703125	196.5920562744141	163.5117492675781	940.8013916015625	220.8242340087891	286.06787109375	666.058837890625	220.7273406982422	223.1519927978516	740.6978759765625	193.4662322998047	286.3633117675781	750.1383666992188	202.6324615478516	321.0215454101562	1357.533935546875	592.219482421875	329.9739990234375	1297.1904296875	653.1183471679688	317.4544067382812	1039.761962890625	708.3911743164062	274.8916931152344	1028.081176757812	624.9779052734375	399.6870422363281	805.687255859375	677.644775390625	373.1121826171875	809.162353515625	746.5858154296875	336.1120910644531	974.6910400390625	726.5476684570312	360.6752624511719	638.4644775390625	700.9181518554688	400.874755859375	699.948486328125	706.0332641601562	360.1752014160156	721.3171997070312	757.6088256835938	251.1581115722656	1563.127319335938	536.8492431640625	334.9788208007812	1576.238403320312	355.3885498046875	368.2205505371094	1583.926025390625	472.6985168457031	191.0274963378906	1551.197875976562	386.2288818359375	183.1381072998047	911.1685791015625	312.7918395996094	366.0557861328125	949.7142944335938	619.16259765625	446.62158203125	958.5474243164062	500.9350280761719	300.1235046386719	916.5652465820312	285.80224609375	267.8839416503906	427.4165954589844	335.1327209472656	253.8877410888672	561.6406860351562	322.5447998046875	-59.09347534179688	182.2410125732422	522.9074096679688	96.54325103759766	289.0877075195312	421.5867309570312	66.0487060546875	29.86309242248535	589.1084594726562	38.43754577636719	91.69753265380859	608.199462890625	-7.245959758758545	64.68655395507812	518.0125732421875	-54.25667953491211	227.1972503662109	573.0609130859375	519.3323364257812	481.4420776367188	517.2139282226562	484.1622619628906	739.8887329101562	558.2110595703125	499.1185913085938	51.15567398071289	544.8804931640625	534.5390014648438	353.4609069824219	501.0018310546875	604.4738159179688	34.39018630981445	385.7701721191406	525.3157348632812	39.34237670898438	407.9260559082031	569.5403442382812	39.33481979370117	499.6969299316406	410.3301086425781	37.87238693237305	546.7454223632812	
